<?xml version="1.0" encoding="utf-8" standalone="no"?>
<!DOCTYPE svg PUBLIC "-//W3C//DTD SVG 1.1//EN"
  "http://www.w3.org/Graphics/SVG/1.1/DTD/svg11.dtd">
<svg xmlns:xlink="http://www.w3.org/1999/xlink" width="600.704531pt" height="384.000156pt" viewBox="0 0 600.704531 384.000156" xmlns="http://www.w3.org/2000/svg" version="1.1">
 <metadata>
  <rdf:RDF xmlns:dc="http://purl.org/dc/elements/1.1/" xmlns:cc="http://creativecommons.org/ns#" xmlns:rdf="http://www.w3.org/1999/02/22-rdf-syntax-ns#">
   <cc:Work>
    <dc:type rdf:resource="http://purl.org/dc/dcmitype/StillImage"/>
    <dc:date>2026-05-21T22:35:20.207543</dc:date>
    <dc:format>image/svg+xml</dc:format>
    <dc:creator>
     <cc:Agent>
      <dc:title>Matplotlib v3.10.9, https://matplotlib.org/</dc:title>
     </cc:Agent>
    </dc:creator>
   </cc:Work>
  </rdf:RDF>
 </metadata>
 <defs>
  <style type="text/css">*{stroke-linejoin: round; stroke-linecap: butt}</style>
 </defs>
 <g id="figure_1">
  <g id="patch_1">
   <path d="M 0 384.000156 
L 600.704531 384.000156 
L 600.704531 0 
L 0 0 
z
" style="fill: #ffffff"/>
  </g>
  <g id="axes_1">
   <g id="patch_2">
    <path d="M 65.527969 355.7725 
L 554.527969 355.7725 
L 554.527969 22.7925 
L 65.527969 22.7925 
z
" style="fill: #ffffff"/>
   </g>
   <g id="matplotlib.axis_1">
    <g id="xtick_1">
     <g id="text_1">
      <!-- 低碳情景 -->
      <g style="fill: #262626" transform="translate(129.261735 374.065625) scale(0.11 -0.11)">
       <defs>
        <path id="MicrosoftYaHei-4f4e" d="M 2275 4809 
Q 4069 4809 5994 5072 
L 6169 4603 
Q 5306 4522 4497 4469 
Q 4513 3594 4556 2872 
L 6250 2872 
L 6250 2422 
L 4591 2422 
Q 4775 250 5581 -172 
Q 5756 -247 5806 -41 
Q 5863 278 5913 897 
Q 6156 784 6363 728 
Q 6300 141 6225 -241 
Q 6119 -728 5738 -728 
Q 5275 -728 4856 -178 
Q 4259 644 4122 2422 
L 2750 2422 
L 2750 209 
Q 3425 597 3913 878 
Q 3950 591 4006 397 
Q 3206 -59 2744 -353 
Q 2563 -472 2388 -634 
L 2063 -222 
Q 2275 -41 2275 316 
L 2275 4809 
z
M 38 2397 
Q 1000 3697 1531 5334 
L 1988 5172 
Q 1678 4309 1306 3578 
L 1306 -828 
L 856 -828 
L 856 2778 
Q 550 2288 213 1872 
Q 138 2122 38 2397 
z
M 4016 4441 
Q 3366 4403 2750 4384 
L 2750 2872 
L 4094 2872 
Q 4059 3481 4016 4441 
z
M 3531 -116 
L 3856 141 
Q 4206 -191 4544 -566 
L 4181 -859 
Q 3888 -491 3531 -116 
z
" transform="scale(0.015625)"/>
        <path id="MicrosoftYaHei-78b3" d="M 50 1697 
Q 694 2747 1025 4309 
L 275 4309 
L 275 4734 
L 2263 4734 
L 2263 4309 
L 1469 4309 
Q 1319 3584 1100 2953 
L 2106 2953 
L 2106 -353 
L 1694 -353 
L 1694 34 
L 1106 34 
L 1106 -428 
L 694 -428 
L 694 1953 
Q 538 1641 363 1353 
Q 206 1534 50 1697 
z
M 2300 3097 
L 3106 3097 
Q 3131 3334 3156 3559 
L 3588 3559 
Q 3563 3322 3538 3097 
L 6200 3097 
L 6200 2672 
L 3475 2672 
Q 3413 2309 3319 1978 
L 3419 2047 
Q 3731 1622 4006 1172 
L 3644 928 
Q 3438 1297 3206 1647 
Q 2906 791 2344 122 
Q 2238 378 2125 553 
Q 2825 1441 3038 2672 
L 2300 2672 
L 2300 3097 
z
M 4275 2472 
L 4694 2472 
Q 4688 2059 4644 1553 
Q 4838 22 6325 -397 
Q 6144 -634 6031 -853 
Q 4794 -328 4450 822 
Q 4138 -253 2694 -903 
Q 2544 -666 2381 -459 
Q 3831 28 4131 1078 
Q 4256 1453 4275 2472 
z
M 5563 4934 
L 5975 4934 
L 5975 3553 
L 5563 3553 
L 5563 3753 
L 2500 3753 
L 2500 4934 
L 2913 4934 
L 2913 4166 
L 4025 4166 
L 4025 5253 
L 4450 5253 
L 4450 4166 
L 5563 4166 
L 5563 4934 
z
M 1694 2541 
L 1106 2541 
L 1106 447 
L 1694 447 
L 1694 2541 
z
M 4931 1253 
Q 5338 1641 5675 2072 
L 6044 1772 
Q 5644 1334 5213 953 
L 4931 1253 
z
" transform="scale(0.015625)"/>
        <path id="MicrosoftYaHei-60c5" d="M 2806 -797 
L 2331 -797 
L 2331 2372 
L 5844 2372 
L 5844 -41 
Q 5844 -734 5213 -747 
Q 4800 -753 4150 -747 
Q 4119 -547 4056 -266 
Q 4650 -303 5025 -303 
Q 5369 -303 5369 -3 
L 5369 334 
L 2806 334 
L 2806 -797 
z
M 1925 3147 
L 3838 3147 
L 3838 3578 
L 2263 3578 
L 2263 3972 
L 3838 3972 
L 3838 4391 
L 2088 4391 
L 2088 4784 
L 3838 4784 
L 3838 5347 
L 4313 5347 
L 4313 4784 
L 6188 4784 
L 6188 4391 
L 4313 4391 
L 4313 3972 
L 6013 3972 
L 6013 3578 
L 4313 3578 
L 4313 3147 
L 6319 3147 
L 6319 2753 
L 1925 2753 
L 1925 3147 
z
M 931 5291 
L 1375 5291 
L 1375 4019 
L 1613 4191 
Q 1931 3816 2181 3497 
L 1831 3241 
Q 1638 3525 1375 3869 
L 1375 -816 
L 931 -816 
L 931 5291 
z
M 5369 1972 
L 2806 1972 
L 2806 1541 
L 5369 1541 
L 5369 1972 
z
M 2806 722 
L 5369 722 
L 5369 1153 
L 2806 1153 
L 2806 722 
z
M 319 3866 
L 719 3816 
Q 650 3059 494 2209 
Q 350 2247 88 2297 
Q 225 2909 319 3866 
z
" transform="scale(0.015625)"/>
        <path id="MicrosoftYaHei-666f" d="M 900 5084 
L 5500 5084 
L 5500 2984 
L 5050 2984 
L 5050 3209 
L 1350 3209 
L 1350 2984 
L 900 2984 
L 900 5084 
z
M 1013 2003 
L 5438 2003 
L 5438 566 
L 4988 566 
L 4988 766 
L 3481 766 
L 3481 -103 
Q 3488 -766 2825 -766 
Q 2406 -766 2131 -759 
Q 2119 -666 2038 -266 
Q 2431 -303 2713 -303 
Q 3013 -303 3019 9 
L 3019 766 
L 1463 766 
L 1463 566 
L 1013 566 
L 1013 2003 
z
M 338 2759 
L 2950 2759 
Q 2878 2888 2800 3022 
L 3219 3197 
Q 3350 2969 3459 2759 
L 6075 2759 
L 6075 2372 
L 338 2372 
L 338 2759 
z
M 4988 1628 
L 1463 1628 
L 1463 1141 
L 4988 1141 
L 4988 1628 
z
M 1350 3584 
L 5050 3584 
L 5050 3966 
L 1350 3966 
L 1350 3584 
z
M 5050 4709 
L 1350 4709 
L 1350 4328 
L 5050 4328 
L 5050 4709 
z
M 4000 103 
L 4213 497 
Q 5181 134 6113 -247 
L 5881 -678 
Q 5025 -278 4000 103 
z
M 2175 503 
L 2438 122 
Q 1531 -322 588 -741 
Q 494 -559 338 -341 
Q 1406 97 2175 503 
z
" transform="scale(0.015625)"/>
       </defs>
       <use xlink:href="#MicrosoftYaHei-4f4e"/>
       <use xlink:href="#MicrosoftYaHei-78b3" transform="translate(100 0)"/>
       <use xlink:href="#MicrosoftYaHei-60c5" transform="translate(200 0)"/>
       <use xlink:href="#MicrosoftYaHei-666f" transform="translate(300 0)"/>
      </g>
     </g>
    </g>
    <g id="xtick_2">
     <g id="text_2">
      <!-- 基准情景 -->
      <g style="fill: #262626" transform="translate(288.027969 374.065625) scale(0.11 -0.11)">
       <defs>
        <path id="MicrosoftYaHei-57fa" d="M 6319 697 
Q 6113 441 5981 247 
Q 5406 519 4925 897 
L 4925 553 
L 3431 553 
L 3431 -97 
L 5875 -97 
L 5875 -503 
L 519 -503 
L 519 -97 
L 2963 -97 
L 2963 553 
L 1450 553 
L 1450 894 
Q 953 478 413 172 
Q 294 341 88 566 
Q 1050 1034 1753 1753 
L 156 1753 
L 156 2159 
L 1400 2159 
L 1400 4253 
L 350 4253 
L 350 4659 
L 1400 4659 
L 1400 5334 
L 1869 5334 
L 1869 4659 
L 4550 4659 
L 4550 5334 
L 5019 5334 
L 5019 4659 
L 6069 4659 
L 6069 4253 
L 5019 4253 
L 5019 2159 
L 6244 2159 
L 6244 1753 
L 4600 1753 
Q 5303 1053 6319 697 
z
M 2963 1553 
L 3431 1553 
L 3431 947 
L 4863 947 
Q 4416 1306 4047 1753 
L 2325 1753 
Q 1934 1309 1513 947 
L 2963 947 
L 2963 1553 
z
M 1869 2159 
L 4550 2159 
L 4550 2603 
L 1869 2603 
L 1869 2159 
z
M 1869 2991 
L 4550 2991 
L 4550 3428 
L 1869 3428 
L 1869 2991 
z
M 1869 3816 
L 4550 3816 
L 4550 4253 
L 1869 4253 
L 1869 3816 
z
" transform="scale(0.015625)"/>
        <path id="MicrosoftYaHei-51c6" d="M 1413 2766 
Q 2313 3866 2869 5334 
L 3331 5172 
Q 3128 4694 2906 4253 
L 6194 4253 
L 6194 3822 
L 4675 3822 
L 4675 2891 
L 6025 2891 
L 6025 2459 
L 4675 2459 
L 4675 1528 
L 6038 1528 
L 6038 1097 
L 4675 1097 
L 4675 78 
L 6275 78 
L 6275 -341 
L 2769 -341 
L 2769 -841 
L 2281 -841 
L 2281 3131 
Q 2034 2738 1769 2384 
Q 1631 2578 1413 2766 
z
M 2769 78 
L 4188 78 
L 4188 1097 
L 2769 1097 
L 2769 78 
z
M 1081 2422 
Q 1325 2291 1556 2209 
Q 1113 916 681 -372 
L 169 -141 
Q 650 1003 1081 2422 
z
M 2769 1528 
L 4188 1528 
L 4188 2459 
L 2769 2459 
L 2769 1528 
z
M 2769 2891 
L 4188 2891 
L 4188 3822 
L 2769 3822 
L 2769 2891 
z
M 531 4991 
Q 1050 4384 1581 3709 
Q 1538 3678 1150 3341 
Q 681 3997 138 4672 
L 531 4991 
z
M 3919 5116 
L 4325 5372 
Q 4569 5072 4881 4622 
L 4450 4334 
Q 4156 4784 3919 5116 
z
" transform="scale(0.015625)"/>
       </defs>
       <use xlink:href="#MicrosoftYaHei-57fa"/>
       <use xlink:href="#MicrosoftYaHei-51c6" transform="translate(100 0)"/>
       <use xlink:href="#MicrosoftYaHei-60c5" transform="translate(200 0)"/>
       <use xlink:href="#MicrosoftYaHei-666f" transform="translate(300 0)"/>
      </g>
     </g>
    </g>
    <g id="xtick_3">
     <g id="text_3">
      <!-- 强化低碳情景 -->
      <g style="fill: #262626" transform="translate(435.794203 374.065625) scale(0.11 -0.11)">
       <defs>
        <path id="MicrosoftYaHei-5f3a" d="M 5250 466 
L 5669 666 
Q 6031 28 6363 -641 
L 5894 -878 
Q 5794 -641 5688 -416 
Q 3750 -547 2219 -653 
L 2150 -134 
Q 3088 -97 3969 -59 
L 3969 866 
L 2894 866 
L 2894 622 
L 2431 622 
L 2431 2616 
L 3969 2616 
L 3969 3297 
L 3144 3297 
L 3144 3047 
L 2681 3047 
L 2681 4972 
L 5731 4972 
L 5731 3047 
L 5269 3047 
L 5269 3297 
L 4444 3297 
L 4444 2616 
L 5988 2616 
L 5988 866 
L 4444 866 
L 4444 -41 
Q 4975 -22 5488 3 
Q 5369 241 5250 466 
z
M 425 3466 
L 1650 3466 
L 1650 4516 
L 238 4516 
L 238 4941 
L 2113 4941 
L 2113 2772 
L 1650 2772 
L 1650 3041 
L 831 3041 
L 719 2072 
L 2056 2072 
Q 1994 741 1944 128 
Q 1888 -722 1100 -722 
Q 819 -722 425 -716 
Q 388 -484 325 -216 
Q 731 -247 1019 -247 
Q 1444 -247 1475 191 
Q 1525 828 1563 1647 
L 225 1647 
L 425 3466 
z
M 5269 4547 
L 3144 4547 
L 3144 3722 
L 5269 3722 
L 5269 4547 
z
M 5525 1291 
L 5525 2191 
L 4444 2191 
L 4444 1291 
L 5525 1291 
z
M 2894 1291 
L 3969 1291 
L 3969 2191 
L 2894 2191 
L 2894 1291 
z
" transform="scale(0.015625)"/>
        <path id="MicrosoftYaHei-5316" d="M 1844 1453 
Q 2663 1834 3375 2331 
L 3375 5197 
L 3913 5197 
L 3913 2734 
Q 4869 3506 5613 4516 
L 6069 4184 
Q 5159 2975 3913 2069 
L 3913 303 
Q 3913 -122 4363 -122 
L 5156 -122 
Q 5581 -122 5650 284 
Q 5738 709 5763 1266 
Q 6025 1166 6313 1084 
Q 6263 559 6181 122 
Q 6063 -597 5281 -597 
L 4225 -597 
Q 3375 -597 3375 241 
L 3375 1703 
Q 2791 1328 2144 1016 
Q 2013 1222 1844 1453 
z
M 88 2222 
Q 1175 3666 1688 5291 
L 2231 5134 
Q 1934 4359 1588 3675 
L 1588 -797 
L 1063 -797 
L 1063 2734 
Q 716 2172 325 1678 
Q 219 1947 88 2222 
z
" transform="scale(0.015625)"/>
       </defs>
       <use xlink:href="#MicrosoftYaHei-5f3a"/>
       <use xlink:href="#MicrosoftYaHei-5316" transform="translate(100 0)"/>
       <use xlink:href="#MicrosoftYaHei-4f4e" transform="translate(200 0)"/>
       <use xlink:href="#MicrosoftYaHei-78b3" transform="translate(300 0)"/>
       <use xlink:href="#MicrosoftYaHei-60c5" transform="translate(400 0)"/>
       <use xlink:href="#MicrosoftYaHei-666f" transform="translate(500 0)"/>
      </g>
     </g>
    </g>
   </g>
   <g id="matplotlib.axis_2">
    <g id="ytick_1">
     <g id="line2d_1">
      <path d="M 65.527969 355.7725 
L 554.527969 355.7725 
" clip-path="url(#p3986475786)" style="fill: none; stroke: #cccccc; stroke-linecap: round"/>
     </g>
     <g id="line2d_2">
      <defs>
       <path id="m22905e09e9" d="M 0 0 
L -6 0 
" style="stroke: #262626; stroke-width: 1.25"/>
      </defs>
      <g>
       <use xlink:href="#m22905e09e9" x="65.527969" y="355.7725" style="fill: #262626; stroke: #262626; stroke-width: 1.25"/>
      </g>
     </g>
     <g id="text_4">
      <!-- 0 -->
      <g style="fill: #262626" transform="translate(49.5775 360.169062) scale(0.11 -0.11)">
       <defs>
        <path id="MicrosoftYaHei-30" d="M 284 2325 
Q 284 3606 709 4264 
Q 1134 4922 1941 4922 
Q 3478 4922 3478 2441 
Q 3478 1216 3045 567 
Q 2613 -81 1831 -81 
Q 1094 -81 689 534 
Q 284 1150 284 2325 
z
M 909 2353 
Q 909 425 1888 425 
Q 2850 425 2850 2384 
Q 2850 4413 1906 4413 
Q 909 4413 909 2353 
z
" transform="scale(0.015625)"/>
       </defs>
       <use xlink:href="#MicrosoftYaHei-30"/>
      </g>
     </g>
    </g>
    <g id="ytick_2">
     <g id="line2d_3">
      <path d="M 65.527969 303.276379 
L 554.527969 303.276379 
" clip-path="url(#p3986475786)" style="fill: none; stroke: #cccccc; stroke-linecap: round"/>
     </g>
     <g id="line2d_4">
      <g>
       <use xlink:href="#m22905e09e9" x="65.527969" y="303.276379" style="fill: #262626; stroke: #262626; stroke-width: 1.25"/>
      </g>
     </g>
     <g id="text_5">
      <!-- 2000 -->
      <g style="fill: #262626" transform="translate(30.226094 307.672942) scale(0.11 -0.11)">
       <defs>
        <path id="MicrosoftYaHei-32" d="M 2666 3572 
Q 2666 3963 2419 4186 
Q 2172 4409 1747 4409 
Q 1447 4409 1140 4256 
Q 834 4103 569 3819 
L 569 4413 
Q 806 4659 1107 4790 
Q 1409 4922 1816 4922 
Q 2472 4922 2872 4570 
Q 3272 4219 3272 3619 
Q 3272 3084 3026 2693 
Q 2781 2303 2188 1894 
Q 1581 1475 1376 1294 
Q 1172 1113 1090 947 
Q 1009 781 1009 544 
L 3416 544 
L 3416 0 
L 372 0 
L 372 241 
Q 372 659 486 951 
Q 600 1244 862 1520 
Q 1125 1797 1681 2184 
Q 2250 2584 2458 2886 
Q 2666 3188 2666 3572 
z
" transform="scale(0.015625)"/>
       </defs>
       <use xlink:href="#MicrosoftYaHei-32"/>
       <use xlink:href="#MicrosoftYaHei-30" transform="translate(58.642578 0)"/>
       <use xlink:href="#MicrosoftYaHei-30" transform="translate(117.285156 0)"/>
       <use xlink:href="#MicrosoftYaHei-30" transform="translate(175.927734 0)"/>
      </g>
     </g>
    </g>
    <g id="ytick_3">
     <g id="line2d_5">
      <path d="M 65.527969 250.780259 
L 554.527969 250.780259 
" clip-path="url(#p3986475786)" style="fill: none; stroke: #cccccc; stroke-linecap: round"/>
     </g>
     <g id="line2d_6">
      <g>
       <use xlink:href="#m22905e09e9" x="65.527969" y="250.780259" style="fill: #262626; stroke: #262626; stroke-width: 1.25"/>
      </g>
     </g>
     <g id="text_6">
      <!-- 4000 -->
      <g style="fill: #262626" transform="translate(30.226094 255.176821) scale(0.11 -0.11)">
       <defs>
        <path id="MicrosoftYaHei-34" d="M 2906 4841 
L 2906 1644 
L 3631 1644 
L 3631 1138 
L 2906 1138 
L 2906 0 
L 2313 0 
L 2313 1138 
L 53 1138 
L 53 1616 
Q 656 2294 1265 3178 
Q 1875 4063 2272 4841 
L 2906 4841 
z
M 741 1644 
L 2313 1644 
L 2313 3950 
Q 1988 3366 1616 2817 
Q 1244 2269 741 1644 
z
" transform="scale(0.015625)"/>
       </defs>
       <use xlink:href="#MicrosoftYaHei-34"/>
       <use xlink:href="#MicrosoftYaHei-30" transform="translate(58.642578 0)"/>
       <use xlink:href="#MicrosoftYaHei-30" transform="translate(117.285156 0)"/>
       <use xlink:href="#MicrosoftYaHei-30" transform="translate(175.927734 0)"/>
      </g>
     </g>
    </g>
    <g id="ytick_4">
     <g id="line2d_7">
      <path d="M 65.527969 198.284138 
L 554.527969 198.284138 
" clip-path="url(#p3986475786)" style="fill: none; stroke: #cccccc; stroke-linecap: round"/>
     </g>
     <g id="line2d_8">
      <g>
       <use xlink:href="#m22905e09e9" x="65.527969" y="198.284138" style="fill: #262626; stroke: #262626; stroke-width: 1.25"/>
      </g>
     </g>
     <g id="text_7">
      <!-- 6000 -->
      <g style="fill: #262626" transform="translate(30.226094 202.680701) scale(0.11 -0.11)">
       <defs>
        <path id="MicrosoftYaHei-36" d="M 3181 4219 
Q 2803 4413 2391 4413 
Q 1763 4413 1381 3866 
Q 1000 3319 994 2372 
L 1009 2372 
Q 1353 3038 2106 3038 
Q 2734 3038 3109 2628 
Q 3484 2219 3484 1541 
Q 3484 831 3051 375 
Q 2619 -81 1947 -81 
Q 1209 -81 789 495 
Q 369 1072 369 2131 
Q 369 3413 920 4167 
Q 1472 4922 2372 4922 
Q 2888 4922 3181 4781 
L 3181 4219 
z
M 1031 1584 
Q 1031 1106 1286 765 
Q 1541 425 1963 425 
Q 2363 425 2613 719 
Q 2863 1013 2863 1475 
Q 2863 1975 2627 2253 
Q 2391 2531 1956 2531 
Q 1544 2531 1287 2250 
Q 1031 1969 1031 1584 
z
" transform="scale(0.015625)"/>
       </defs>
       <use xlink:href="#MicrosoftYaHei-36"/>
       <use xlink:href="#MicrosoftYaHei-30" transform="translate(58.642578 0)"/>
       <use xlink:href="#MicrosoftYaHei-30" transform="translate(117.285156 0)"/>
       <use xlink:href="#MicrosoftYaHei-30" transform="translate(175.927734 0)"/>
      </g>
     </g>
    </g>
    <g id="ytick_5">
     <g id="line2d_9">
      <path d="M 65.527969 145.788018 
L 554.527969 145.788018 
" clip-path="url(#p3986475786)" style="fill: none; stroke: #cccccc; stroke-linecap: round"/>
     </g>
     <g id="line2d_10">
      <g>
       <use xlink:href="#m22905e09e9" x="65.527969" y="145.788018" style="fill: #262626; stroke: #262626; stroke-width: 1.25"/>
      </g>
     </g>
     <g id="text_8">
      <!-- 8000 -->
      <g style="fill: #262626" transform="translate(30.226094 150.18458) scale(0.11 -0.11)">
       <defs>
        <path id="MicrosoftYaHei-38" d="M 306 1350 
Q 306 1769 556 2122 
Q 806 2475 1200 2625 
Q 884 2803 700 3081 
Q 516 3359 516 3684 
Q 516 4028 692 4312 
Q 869 4597 1183 4759 
Q 1497 4922 1875 4922 
Q 2256 4922 2572 4761 
Q 2888 4600 3063 4315 
Q 3238 4031 3238 3684 
Q 3238 3366 3058 3086 
Q 2878 2806 2559 2625 
Q 2953 2472 3200 2119 
Q 3447 1766 3447 1350 
Q 3447 938 3250 611 
Q 3053 284 2690 103 
Q 2328 -78 1875 -78 
Q 1425 -78 1065 103 
Q 706 284 506 612 
Q 306 941 306 1350 
z
M 906 1378 
Q 906 947 1172 687 
Q 1438 428 1878 428 
Q 2309 428 2582 692 
Q 2856 956 2856 1378 
Q 2856 1778 2579 2051 
Q 2303 2325 1878 2325 
Q 1456 2325 1181 2058 
Q 906 1791 906 1378 
z
M 1081 3634 
Q 1081 3309 1312 3076 
Q 1544 2844 1878 2844 
Q 2206 2844 2445 3078 
Q 2684 3313 2684 3634 
Q 2684 3963 2454 4191 
Q 2225 4419 1878 4419 
Q 1534 4419 1307 4195 
Q 1081 3972 1081 3634 
z
" transform="scale(0.015625)"/>
       </defs>
       <use xlink:href="#MicrosoftYaHei-38"/>
       <use xlink:href="#MicrosoftYaHei-30" transform="translate(58.642578 0)"/>
       <use xlink:href="#MicrosoftYaHei-30" transform="translate(117.285156 0)"/>
       <use xlink:href="#MicrosoftYaHei-30" transform="translate(175.927734 0)"/>
      </g>
     </g>
    </g>
    <g id="ytick_6">
     <g id="line2d_11">
      <path d="M 65.527969 93.291897 
L 554.527969 93.291897 
" clip-path="url(#p3986475786)" style="fill: none; stroke: #cccccc; stroke-linecap: round"/>
     </g>
     <g id="line2d_12">
      <g>
       <use xlink:href="#m22905e09e9" x="65.527969" y="93.291897" style="fill: #262626; stroke: #262626; stroke-width: 1.25"/>
      </g>
     </g>
     <g id="text_9">
      <!-- 10000 -->
      <g style="fill: #262626" transform="translate(23.775625 97.68846) scale(0.11 -0.11)">
       <defs>
        <path id="MicrosoftYaHei-31" d="M 1781 0 
L 1781 4141 
Q 1638 3997 1295 3819 
Q 953 3641 663 3569 
L 663 4169 
Q 1047 4275 1484 4508 
Q 1922 4741 2156 4947 
L 2388 4947 
L 2388 0 
L 1781 0 
z
" transform="scale(0.015625)"/>
       </defs>
       <use xlink:href="#MicrosoftYaHei-31"/>
       <use xlink:href="#MicrosoftYaHei-30" transform="translate(58.642578 0)"/>
       <use xlink:href="#MicrosoftYaHei-30" transform="translate(117.285156 0)"/>
       <use xlink:href="#MicrosoftYaHei-30" transform="translate(175.927734 0)"/>
       <use xlink:href="#MicrosoftYaHei-30" transform="translate(234.570312 0)"/>
      </g>
     </g>
    </g>
    <g id="ytick_7">
     <g id="line2d_13">
      <path d="M 65.527969 40.795777 
L 554.527969 40.795777 
" clip-path="url(#p3986475786)" style="fill: none; stroke: #cccccc; stroke-linecap: round"/>
     </g>
     <g id="line2d_14">
      <g>
       <use xlink:href="#m22905e09e9" x="65.527969" y="40.795777" style="fill: #262626; stroke: #262626; stroke-width: 1.25"/>
      </g>
     </g>
     <g id="text_10">
      <!-- 12000 -->
      <g style="fill: #262626" transform="translate(23.775625 45.192339) scale(0.11 -0.11)">
       <use xlink:href="#MicrosoftYaHei-31"/>
       <use xlink:href="#MicrosoftYaHei-32" transform="translate(58.642578 0)"/>
       <use xlink:href="#MicrosoftYaHei-30" transform="translate(117.285156 0)"/>
       <use xlink:href="#MicrosoftYaHei-30" transform="translate(175.927734 0)"/>
       <use xlink:href="#MicrosoftYaHei-30" transform="translate(234.570312 0)"/>
      </g>
     </g>
    </g>
    <g id="text_11">
     <!-- 峰值排放（Mt） -->
     <g style="fill: #262626" transform="translate(16.7925 233.379687) rotate(-90) scale(0.12 -0.12)">
      <defs>
       <path id="MicrosoftYaHei-5cf0" d="M 2369 4147 
L 2369 -72 
L 1950 -72 
L 1950 244 
L 319 141 
L 319 4166 
L 738 4166 
L 738 566 
L 1131 591 
L 1131 5134 
L 1556 5134 
L 1556 619 
L 1950 644 
L 1950 4147 
L 2369 4147 
z
M 2450 3734 
Q 3238 4472 3588 5341 
L 4013 5216 
Q 3909 4988 3784 4766 
L 5725 4766 
L 5725 4366 
Q 5378 3809 4784 3384 
Q 5431 3091 6306 2959 
Q 6188 2759 6106 2509 
Q 5100 2725 4381 3125 
Q 3672 2719 2688 2459 
Q 2588 2691 2450 2878 
Q 3334 3069 3978 3381 
Q 3584 3669 3297 4025 
Q 3047 3700 2744 3397 
Q 2613 3572 2450 3734 
z
M 2613 459 
L 4169 459 
L 4169 953 
L 2869 953 
L 2869 1328 
L 4169 1328 
L 4169 1816 
L 2781 1816 
L 2781 2191 
L 4169 2191 
L 4169 2766 
L 4613 2766 
L 4613 2191 
L 5981 2191 
L 5981 1816 
L 4613 1816 
L 4613 1328 
L 5900 1328 
L 5900 953 
L 4613 953 
L 4613 459 
L 6188 459 
L 6188 84 
L 4613 84 
L 4613 -828 
L 4169 -828 
L 4169 84 
L 2613 84 
L 2613 459 
z
M 5231 4378 
L 3550 4378 
L 3534 4356 
Q 3863 3913 4375 3600 
Q 4913 3934 5231 4378 
z
" transform="scale(0.015625)"/>
       <path id="MicrosoftYaHei-503c" d="M 1619 -216 
L 2250 -216 
L 2250 3653 
L 3725 3653 
L 3725 4222 
L 1913 4222 
L 1913 4647 
L 3725 4647 
L 3725 5309 
L 4200 5309 
L 4200 4647 
L 6169 4647 
L 6169 4222 
L 4200 4222 
L 4200 3653 
L 5713 3653 
L 5713 -216 
L 6306 -216 
L 6306 -641 
L 1619 -641 
L 1619 -216 
z
M 69 2247 
Q 906 3497 1369 5278 
L 1831 5141 
Q 1581 4334 1288 3628 
L 1288 -816 
L 831 -816 
L 831 2666 
Q 563 2166 263 1734 
Q 175 1997 69 2247 
z
M 2713 -216 
L 5250 -216 
L 5250 353 
L 2713 353 
L 2713 -216 
z
M 5250 3241 
L 2713 3241 
L 2713 2678 
L 5250 2678 
L 5250 3241 
z
M 2713 1716 
L 5250 1716 
L 5250 2278 
L 2713 2278 
L 2713 1716 
z
M 2713 753 
L 5250 753 
L 5250 1316 
L 2713 1316 
L 2713 753 
z
" transform="scale(0.015625)"/>
       <path id="MicrosoftYaHei-6392" d="M 4375 5309 
L 4863 5309 
L 4863 4159 
L 6188 4159 
L 6188 3684 
L 4863 3684 
L 4863 2609 
L 6038 2609 
L 6038 2134 
L 4863 2134 
L 4863 1047 
L 6294 1047 
L 6294 572 
L 4863 572 
L 4863 -841 
L 4375 -841 
L 4375 5309 
z
M 1844 1047 
L 3138 1047 
L 3138 2134 
L 2150 2134 
L 2150 2609 
L 3138 2609 
L 3138 3684 
L 2163 3684 
L 2163 4159 
L 3138 4159 
L 3138 5309 
L 3625 5309 
L 3625 -841 
L 3138 -841 
L 3138 572 
L 1844 572 
L 1844 1047 
z
M 131 4166 
L 875 4166 
L 875 5316 
L 1350 5316 
L 1350 4166 
L 1969 4166 
L 1969 3728 
L 1350 3728 
L 1350 2563 
Q 1650 2716 1938 2872 
Q 1956 2603 1988 2372 
Q 1681 2216 1350 2044 
L 1350 -134 
Q 1350 -772 669 -778 
Q 481 -784 156 -778 
Q 131 -528 75 -259 
Q 419 -284 613 -284 
Q 875 -284 875 3 
L 875 1797 
Q 525 1616 150 1416 
L 88 1966 
Q 491 2144 875 2328 
L 875 3728 
L 131 3728 
L 131 4166 
z
" transform="scale(0.015625)"/>
       <path id="MicrosoftYaHei-653e" d="M 3956 5359 
L 4456 5272 
Q 4322 4681 4106 4128 
L 6281 4128 
L 6281 3666 
L 5759 3666 
Q 5638 1816 4884 725 
Q 5447 25 6338 -353 
Q 6131 -628 5994 -847 
Q 5153 -394 4559 322 
Q 3947 -356 3094 -903 
Q 2950 -722 2738 -509 
Q 3669 56 4259 731 
Q 3713 1625 3563 2988 
Q 3378 2669 3163 2366 
Q 3031 2553 2850 2766 
Q 3663 3884 3956 5359 
z
M 156 4184 
L 3169 4184 
L 3169 3722 
L 1400 3722 
Q 1394 3166 1378 2703 
L 2813 2703 
Q 2750 1166 2694 241 
Q 2638 -584 1981 -616 
Q 1600 -622 1263 -609 
Q 1225 -378 1156 -84 
Q 1569 -128 1794 -128 
Q 2175 -128 2206 347 
Q 2269 1078 2306 2241 
L 1359 2241 
Q 1338 216 369 -853 
Q 225 -641 38 -416 
Q 625 247 750 1003 
Q 909 1713 906 3722 
L 156 3722 
L 156 4184 
z
M 5263 3666 
L 3934 3666 
Q 4034 2134 4584 1166 
Q 5188 2131 5263 3666 
z
M 1206 5141 
L 1631 5366 
Q 1900 4966 2144 4503 
L 1706 4272 
Q 1456 4753 1206 5141 
z
" transform="scale(0.015625)"/>
       <path id="MicrosoftYaHei-ff08" d="M 5288 -1100 
Q 4172 119 4172 1850 
Q 4172 3603 5288 4838 
L 5825 4838 
Q 4716 3572 4716 1856 
Q 4716 166 5819 -1100 
L 5288 -1100 
z
" transform="scale(0.015625)"/>
       <path id="MicrosoftYaHei-4d" d="M 5003 0 
L 5003 3206 
Q 5003 3603 5050 4159 
L 5034 4159 
Q 4953 3809 4891 3672 
L 3294 0 
L 2947 0 
L 1353 3644 
Q 1297 3769 1209 4159 
L 1191 4159 
Q 1222 3822 1222 3178 
L 1222 0 
L 625 0 
L 625 4841 
L 1472 4841 
L 2900 1522 
Q 3063 1141 3116 928 
L 3138 928 
Q 3300 1375 3366 1534 
L 4819 4841 
L 5625 4841 
L 5625 0 
L 5003 0 
z
" transform="scale(0.015625)"/>
       <path id="MicrosoftYaHei-74" d="M 2206 34 
Q 2006 -75 1666 -75 
Q 738 -75 738 953 
L 738 2950 
L 144 2950 
L 144 3456 
L 738 3456 
L 738 4288 
L 1347 4481 
L 1347 3456 
L 2206 3456 
L 2206 2950 
L 1347 2950 
L 1347 1063 
Q 1347 722 1462 575 
Q 1578 428 1847 428 
Q 2053 428 2206 544 
L 2206 34 
z
" transform="scale(0.015625)"/>
       <path id="MicrosoftYaHei-ff09" d="M 1113 -1100 
L 575 -1100 
Q 1684 163 1684 1888 
Q 1684 3581 581 4838 
L 1113 4838 
Q 2222 3628 2222 1888 
Q 2222 128 1113 -1100 
z
" transform="scale(0.015625)"/>
      </defs>
      <use xlink:href="#MicrosoftYaHei-5cf0"/>
      <use xlink:href="#MicrosoftYaHei-503c" transform="translate(100 0)"/>
      <use xlink:href="#MicrosoftYaHei-6392" transform="translate(200 0)"/>
      <use xlink:href="#MicrosoftYaHei-653e" transform="translate(300 0)"/>
      <use xlink:href="#MicrosoftYaHei-ff08" transform="translate(400 0)"/>
      <use xlink:href="#MicrosoftYaHei-4d" transform="translate(500 0)"/>
      <use xlink:href="#MicrosoftYaHei-74" transform="translate(597.705078 0)"/>
      <use xlink:href="#MicrosoftYaHei-ff09" transform="translate(634.960938 0)"/>
     </g>
    </g>
   </g>
   <g id="patch_3">
    <path d="M 87.755241 355.7725 
L 214.768228 355.7725 
L 214.768228 43.382873 
L 87.755241 43.382873 
z
" clip-path="url(#p3986475786)" style="fill: #72b6a1; stroke: #ffffff; stroke-linejoin: miter"/>
   </g>
   <g id="patch_4">
    <path d="M 246.521475 355.7725 
L 373.534462 355.7725 
L 373.534462 38.64869 
L 246.521475 38.64869 
z
" clip-path="url(#p3986475786)" style="fill: #e99675; stroke: #ffffff; stroke-linejoin: miter"/>
   </g>
   <g id="patch_5">
    <path d="M 405.287709 355.7725 
L 532.300696 355.7725 
L 532.300696 43.382873 
L 405.287709 43.382873 
z
" clip-path="url(#p3986475786)" style="fill: #95a3c3; stroke: #ffffff; stroke-linejoin: miter"/>
   </g>
   <g id="line2d_15">
    <path clip-path="url(#p3986475786)" style="fill: none; stroke: #424242; stroke-width: 2.25; stroke-linecap: round"/>
   </g>
   <g id="line2d_16">
    <path clip-path="url(#p3986475786)" style="fill: none; stroke: #424242; stroke-width: 2.25; stroke-linecap: round"/>
   </g>
   <g id="line2d_17">
    <path clip-path="url(#p3986475786)" style="fill: none; stroke: #424242; stroke-width: 2.25; stroke-linecap: round"/>
   </g>
   <g id="patch_6">
    <path d="M 65.527969 355.7725 
L 65.527969 22.7925 
" style="fill: none; stroke: #cccccc; stroke-width: 1.25; stroke-linejoin: miter; stroke-linecap: square"/>
   </g>
   <g id="patch_7">
    <path d="M 554.527969 355.7725 
L 554.527969 22.7925 
" style="fill: none; stroke: #cccccc; stroke-width: 1.25; stroke-linejoin: miter; stroke-linecap: square"/>
   </g>
   <g id="patch_8">
    <path d="M 65.527969 355.7725 
L 554.527969 355.7725 
" style="fill: none; stroke: #cccccc; stroke-width: 1.25; stroke-linejoin: miter; stroke-linecap: square"/>
   </g>
   <g id="patch_9">
    <path d="M 65.527969 22.7925 
L 554.527969 22.7925 
" style="fill: none; stroke: #cccccc; stroke-width: 1.25; stroke-linejoin: miter; stroke-linecap: square"/>
   </g>
   <g id="text_12">
    <!-- 2024 -->
    <g style="fill: #262626" transform="translate(139.53361 40.896935) scale(0.1 -0.1)">
     <use xlink:href="#MicrosoftYaHei-32"/>
     <use xlink:href="#MicrosoftYaHei-30" transform="translate(58.642578 0)"/>
     <use xlink:href="#MicrosoftYaHei-32" transform="translate(117.285156 0)"/>
     <use xlink:href="#MicrosoftYaHei-34" transform="translate(175.927734 0)"/>
    </g>
   </g>
   <g id="text_13">
    <!-- 2030 -->
    <g style="fill: #262626" transform="translate(298.299844 36.162753) scale(0.1 -0.1)">
     <defs>
      <path id="MicrosoftYaHei-33" d="M 447 809 
Q 944 425 1569 425 
Q 2069 425 2361 670 
Q 2653 916 2653 1328 
Q 2653 2247 1338 2247 
L 934 2247 
L 934 2753 
L 1319 2753 
Q 2484 2753 2484 3616 
Q 2484 4413 1594 4413 
Q 1084 4413 634 4069 
L 634 4647 
Q 1109 4922 1744 4922 
Q 2363 4922 2738 4598 
Q 3113 4275 3113 3759 
Q 3113 2809 2144 2538 
L 2144 2525 
Q 2669 2469 2973 2155 
Q 3278 1841 3278 1372 
Q 3278 719 2808 319 
Q 2338 -81 1556 -81 
Q 869 -81 447 175 
L 447 809 
z
" transform="scale(0.015625)"/>
     </defs>
     <use xlink:href="#MicrosoftYaHei-32"/>
     <use xlink:href="#MicrosoftYaHei-30" transform="translate(58.642578 0)"/>
     <use xlink:href="#MicrosoftYaHei-33" transform="translate(117.285156 0)"/>
     <use xlink:href="#MicrosoftYaHei-30" transform="translate(175.927734 0)"/>
    </g>
   </g>
   <g id="text_14">
    <!-- 2024 -->
    <g style="fill: #262626" transform="translate(457.066078 40.896935) scale(0.1 -0.1)">
     <use xlink:href="#MicrosoftYaHei-32"/>
     <use xlink:href="#MicrosoftYaHei-30" transform="translate(58.642578 0)"/>
     <use xlink:href="#MicrosoftYaHei-32" transform="translate(117.285156 0)"/>
     <use xlink:href="#MicrosoftYaHei-34" transform="translate(175.927734 0)"/>
    </g>
   </g>
   <g id="text_15">
    <!-- 三情景峰值水平与2045减排潜力 -->
    <g style="fill: #262626" transform="translate(223.954219 16.7925) scale(0.12 -0.12)">
     <defs>
      <path id="MicrosoftYaHei-4e09" d="M 575 4691 
L 5813 4691 
L 5813 4153 
L 575 4153 
L 575 4691 
z
M 188 166 
L 6225 166 
L 6225 -359 
L 188 -359 
L 188 166 
z
M 856 2547 
L 5531 2547 
L 5531 2016 
L 856 2016 
L 856 2547 
z
" transform="scale(0.015625)"/>
      <path id="MicrosoftYaHei-6c34" d="M 2925 5297 
L 3431 5297 
L 3431 4294 
Q 3700 3563 4047 2934 
Q 4738 3509 5425 4309 
L 5844 3934 
Q 5113 3169 4300 2506 
Q 5125 1200 6319 384 
Q 6056 122 5894 -84 
Q 4250 1209 3431 3119 
L 3431 197 
Q 3431 -734 2538 -734 
Q 2263 -734 1725 -728 
Q 1694 -497 1625 -166 
Q 2125 -216 2438 -216 
Q 2925 -216 2925 253 
L 2925 5297 
z
M 256 3297 
L 256 3772 
L 2413 3772 
L 2413 3316 
Q 1881 1266 475 -197 
Q 263 47 94 184 
Q 1506 1672 1913 3297 
L 256 3297 
z
" transform="scale(0.015625)"/>
      <path id="MicrosoftYaHei-5e73" d="M 169 1934 
L 2938 1934 
L 2938 4547 
L 450 4547 
L 450 5028 
L 5975 5028 
L 5975 4547 
L 3463 4547 
L 3463 1934 
L 6250 1934 
L 6250 1453 
L 3463 1453 
L 3463 -847 
L 2938 -847 
L 2938 1453 
L 169 1453 
L 169 1934 
z
M 3950 2559 
Q 4638 3284 5188 4159 
L 5656 3859 
Q 4950 2891 4338 2234 
L 3950 2559 
z
M 769 3859 
L 1163 4134 
Q 1863 3316 2369 2553 
L 1925 2222 
Q 1444 3003 769 3859 
z
" transform="scale(0.015625)"/>
      <path id="MicrosoftYaHei-4e0e" d="M 1163 2384 
L 1163 2859 
L 1413 5328 
L 1931 5328 
L 1834 4334 
L 6269 4334 
L 6269 3859 
L 1791 3859 
L 1694 2859 
L 5813 2859 
Q 5738 1547 5644 416 
Q 5556 -247 5263 -478 
Q 4981 -703 4322 -703 
Q 3706 -697 2900 -678 
Q 2863 -466 2794 -134 
Q 3744 -203 4213 -209 
Q 5050 -266 5125 447 
Q 5206 1278 5263 2384 
L 1163 2384 
z
M 106 1409 
L 4738 1409 
L 4738 934 
L 106 934 
L 106 1409 
z
" transform="scale(0.015625)"/>
      <path id="MicrosoftYaHei-35" d="M 3294 1494 
Q 3294 784 2823 350 
Q 2353 -84 1559 -84 
Q 878 -84 544 119 
L 544 744 
Q 1034 425 1544 425 
Q 2050 425 2361 704 
Q 2672 984 2672 1447 
Q 2672 1909 2348 2167 
Q 2025 2425 1434 2425 
Q 978 2425 613 2384 
L 791 4841 
L 3053 4841 
L 3053 4303 
L 1306 4303 
L 1206 2931 
L 1647 2950 
Q 2416 2950 2855 2567 
Q 3294 2184 3294 1494 
z
" transform="scale(0.015625)"/>
      <path id="MicrosoftYaHei-51cf" d="M 3406 -484 
Q 4103 84 4628 878 
Q 4381 1866 4347 3872 
L 2269 3872 
L 2269 2278 
Q 2269 366 1381 -809 
Q 1150 -566 1000 -466 
Q 1831 584 1831 2303 
L 1831 4297 
L 4338 4297 
Q 4331 4800 4331 5278 
L 4788 5278 
Q 4788 4803 4791 4297 
L 6300 4297 
L 6300 3872 
L 4794 3872 
Q 4806 2363 4972 1453 
Q 5403 2256 5688 3253 
L 6138 3097 
Q 5716 1794 5122 813 
Q 5281 250 5488 -47 
Q 5688 -291 5763 53 
Q 5831 422 5881 953 
Q 6175 847 6344 797 
Q 6256 134 6150 -297 
Q 6013 -791 5700 -784 
Q 5431 -791 5194 -478 
Q 4959 -128 4797 316 
Q 4347 -313 3813 -784 
Q 3619 -616 3406 -484 
z
M 2656 2347 
L 4069 2347 
L 4069 509 
L 3069 509 
L 3069 122 
L 2656 122 
L 2656 2347 
z
M 131 16 
Q 519 1059 925 2609 
Q 1163 2497 1388 2409 
Q 1106 1403 638 -153 
L 131 16 
z
M 244 4541 
L 631 4809 
Q 1069 4303 1506 3728 
L 1075 3416 
Q 563 4153 244 4541 
z
M 3656 897 
L 3656 1959 
L 3069 1959 
L 3069 897 
L 3656 897 
z
M 2544 3316 
L 4088 3316 
L 4088 2916 
L 2544 2916 
L 2544 3316 
z
M 5050 5041 
L 5369 5291 
Q 5681 4978 5963 4666 
L 5606 4384 
Q 5350 4709 5050 5041 
z
" transform="scale(0.015625)"/>
      <path id="MicrosoftYaHei-6f5c" d="M 2144 1959 
L 5550 1959 
L 5550 -816 
L 5113 -816 
L 5113 -484 
L 2581 -484 
L 2581 -828 
L 2144 -828 
L 2144 1959 
z
M 3913 3697 
L 4650 3697 
Q 4691 3938 4697 4247 
L 3963 4247 
L 3963 4634 
L 4700 4634 
L 4700 5303 
L 5113 5303 
L 5113 4634 
L 6038 4634 
L 6038 4247 
L 5109 4247 
Q 5100 3953 5066 3697 
L 6150 3697 
L 6150 3309 
L 5303 3309 
Q 5631 2628 6331 2322 
Q 6200 2166 6038 1922 
Q 5184 2431 4972 3244 
Q 4741 2516 3919 2034 
Q 3806 2203 3638 2397 
Q 4325 2753 4553 3309 
L 3913 3309 
L 3913 3697 
z
M 1625 3697 
L 2503 3697 
Q 2538 3941 2544 4247 
L 1731 4247 
L 1731 4634 
L 2544 4634 
L 2544 5303 
L 2956 5303 
L 2956 4634 
L 3694 4634 
L 3694 4247 
L 2956 4247 
Q 2950 3947 2919 3697 
L 3731 3697 
L 3731 3309 
L 2850 3309 
Q 2834 3238 2816 3175 
Q 3181 2919 3625 2541 
L 3331 2209 
Q 3019 2528 2659 2819 
Q 2378 2325 1631 1859 
Q 1538 1997 1325 2234 
Q 2213 2666 2416 3309 
L 1625 3309 
L 1625 3697 
z
M 2581 -72 
L 5113 -72 
L 5113 541 
L 2581 541 
L 2581 -72 
z
M 5113 1547 
L 2581 1547 
L 2581 941 
L 5113 941 
L 5113 1547 
z
M 288 -609 
Q 656 516 931 1809 
Q 1206 1691 1438 1616 
Q 1106 297 838 -778 
L 288 -609 
z
M 325 4878 
L 650 5209 
Q 1156 4809 1644 4366 
L 1269 3997 
Q 813 4453 325 4878 
z
M 94 3253 
L 388 3603 
Q 888 3222 1381 2803 
L 1044 2422 
Q 569 2878 94 3253 
z
" transform="scale(0.015625)"/>
      <path id="MicrosoftYaHei-529b" d="M 400 3916 
L 2425 3916 
Q 2444 4603 2450 5316 
L 2994 5316 
Q 2981 4653 2963 3916 
L 5831 3916 
Q 5756 1472 5688 459 
Q 5606 -616 4538 -628 
Q 4025 -628 3300 -603 
Q 3275 -359 3206 -9 
L 3225 -9 
Q 4038 -84 4488 -78 
Q 5094 -66 5156 591 
Q 5231 1709 5269 3403 
L 2950 3403 
Q 2894 1775 2431 953 
Q 1938 41 506 -803 
Q 331 -578 131 -328 
Q 1488 434 1913 1209 
Q 2353 1913 2406 3403 
L 400 3403 
L 400 3916 
z
" transform="scale(0.015625)"/>
     </defs>
     <use xlink:href="#MicrosoftYaHei-4e09"/>
     <use xlink:href="#MicrosoftYaHei-60c5" transform="translate(100 0)"/>
     <use xlink:href="#MicrosoftYaHei-666f" transform="translate(200 0)"/>
     <use xlink:href="#MicrosoftYaHei-5cf0" transform="translate(300 0)"/>
     <use xlink:href="#MicrosoftYaHei-503c" transform="translate(400 0)"/>
     <use xlink:href="#MicrosoftYaHei-6c34" transform="translate(500 0)"/>
     <use xlink:href="#MicrosoftYaHei-5e73" transform="translate(600 0)"/>
     <use xlink:href="#MicrosoftYaHei-4e0e" transform="translate(700 0)"/>
     <use xlink:href="#MicrosoftYaHei-32" transform="translate(800 0)"/>
     <use xlink:href="#MicrosoftYaHei-30" transform="translate(858.642578 0)"/>
     <use xlink:href="#MicrosoftYaHei-34" transform="translate(917.285156 0)"/>
     <use xlink:href="#MicrosoftYaHei-35" transform="translate(975.927734 0)"/>
     <use xlink:href="#MicrosoftYaHei-51cf" transform="translate(1034.570312 0)"/>
     <use xlink:href="#MicrosoftYaHei-6392" transform="translate(1134.570312 0)"/>
     <use xlink:href="#MicrosoftYaHei-6f5c" transform="translate(1234.570312 0)"/>
     <use xlink:href="#MicrosoftYaHei-529b" transform="translate(1334.570312 0)"/>
    </g>
   </g>
  </g>
  <g id="axes_2">
   <g id="matplotlib.axis_3">
    <g id="ytick_8">
     <g id="line2d_18">
      <path d="M 65.527969 316.506622 
L 554.527969 316.506622 
" clip-path="url(#p3986475786)" style="fill: none; stroke: #cccccc; stroke-linecap: round"/>
     </g>
     <g id="line2d_19">
      <defs>
       <path id="me12238bdb0" d="M 0 0 
L 6 0 
" style="stroke: #262626; stroke-width: 1.25"/>
      </defs>
      <g>
       <use xlink:href="#me12238bdb0" x="554.527969" y="316.506622" style="fill: #262626; stroke: #262626; stroke-width: 1.25"/>
      </g>
     </g>
     <g id="text_16">
      <!-- 20 -->
      <g style="fill: #262626" transform="translate(564.027969 320.903184) scale(0.11 -0.11)">
       <use xlink:href="#MicrosoftYaHei-32"/>
       <use xlink:href="#MicrosoftYaHei-30" transform="translate(58.642578 0)"/>
      </g>
     </g>
    </g>
    <g id="ytick_9">
     <g id="line2d_20">
      <path d="M 65.527969 250.12579 
L 554.527969 250.12579 
" clip-path="url(#p3986475786)" style="fill: none; stroke: #cccccc; stroke-linecap: round"/>
     </g>
     <g id="line2d_21">
      <g>
       <use xlink:href="#me12238bdb0" x="554.527969" y="250.12579" style="fill: #262626; stroke: #262626; stroke-width: 1.25"/>
      </g>
     </g>
     <g id="text_17">
      <!-- 30 -->
      <g style="fill: #262626" transform="translate(564.027969 254.522352) scale(0.11 -0.11)">
       <use xlink:href="#MicrosoftYaHei-33"/>
       <use xlink:href="#MicrosoftYaHei-30" transform="translate(58.642578 0)"/>
      </g>
     </g>
    </g>
    <g id="ytick_10">
     <g id="line2d_22">
      <path d="M 65.527969 183.744957 
L 554.527969 183.744957 
" clip-path="url(#p3986475786)" style="fill: none; stroke: #cccccc; stroke-linecap: round"/>
     </g>
     <g id="line2d_23">
      <g>
       <use xlink:href="#me12238bdb0" x="554.527969" y="183.744957" style="fill: #262626; stroke: #262626; stroke-width: 1.25"/>
      </g>
     </g>
     <g id="text_18">
      <!-- 40 -->
      <g style="fill: #262626" transform="translate(564.027969 188.14152) scale(0.11 -0.11)">
       <use xlink:href="#MicrosoftYaHei-34"/>
       <use xlink:href="#MicrosoftYaHei-30" transform="translate(58.642578 0)"/>
      </g>
     </g>
    </g>
    <g id="ytick_11">
     <g id="line2d_24">
      <path d="M 65.527969 117.364125 
L 554.527969 117.364125 
" clip-path="url(#p3986475786)" style="fill: none; stroke: #cccccc; stroke-linecap: round"/>
     </g>
     <g id="line2d_25">
      <g>
       <use xlink:href="#me12238bdb0" x="554.527969" y="117.364125" style="fill: #262626; stroke: #262626; stroke-width: 1.25"/>
      </g>
     </g>
     <g id="text_19">
      <!-- 50 -->
      <g style="fill: #262626" transform="translate(564.027969 121.760688) scale(0.11 -0.11)">
       <use xlink:href="#MicrosoftYaHei-35"/>
       <use xlink:href="#MicrosoftYaHei-30" transform="translate(58.642578 0)"/>
      </g>
     </g>
    </g>
    <g id="ytick_12">
     <g id="line2d_26">
      <path d="M 65.527969 50.983293 
L 554.527969 50.983293 
" clip-path="url(#p3986475786)" style="fill: none; stroke: #cccccc; stroke-linecap: round"/>
     </g>
     <g id="line2d_27">
      <g>
       <use xlink:href="#me12238bdb0" x="554.527969" y="50.983293" style="fill: #262626; stroke: #262626; stroke-width: 1.25"/>
      </g>
     </g>
     <g id="text_20">
      <!-- 60 -->
      <g style="fill: #262626" transform="translate(564.027969 55.379856) scale(0.11 -0.11)">
       <use xlink:href="#MicrosoftYaHei-36"/>
       <use xlink:href="#MicrosoftYaHei-30" transform="translate(58.642578 0)"/>
      </g>
     </g>
    </g>
    <g id="text_21">
     <!-- 2045较峰值下降比例（%） -->
     <g style="fill: #262626" transform="translate(590.521406 262.694375) rotate(-90) scale(0.12 -0.12)">
      <defs>
       <path id="MicrosoftYaHei-8f83" d="M 694 2234 
L 1438 2234 
L 1438 3603 
L 1875 3603 
L 1875 2234 
L 2513 2234 
L 2513 1828 
L 1875 1828 
L 1875 981 
Q 2288 1031 2688 1084 
Q 2656 847 2644 653 
Q 2294 613 1875 559 
L 1875 -841 
L 1438 -841 
L 1438 506 
Q 844 428 131 334 
L 81 791 
Q 778 856 1438 928 
L 1438 1828 
L 238 1828 
L 238 2222 
Q 575 3156 816 3928 
L 156 3928 
L 156 4347 
L 941 4347 
Q 1103 4891 1206 5347 
L 1688 5247 
Q 1559 4831 1403 4347 
L 2494 4347 
L 2494 3928 
L 1269 3928 
Q 1016 3156 694 2234 
z
M 5525 2341 
Q 5200 1303 4694 644 
Q 5306 69 6331 -247 
Q 6094 -522 5944 -728 
Q 4972 -334 4353 256 
Q 3641 -450 2563 -828 
Q 2481 -666 2263 -384 
Q 3341 -22 4025 619 
Q 3531 1247 3219 2203 
L 3644 2397 
Q 3909 1572 4363 1003 
Q 4813 1622 5063 2497 
L 5525 2341 
z
M 2719 4366 
L 4316 4366 
Q 4109 4728 3806 5116 
L 4188 5359 
Q 4538 4966 4788 4578 
L 4459 4366 
L 6225 4366 
L 6225 3928 
L 2719 3928 
L 2719 4366 
z
M 4663 3422 
L 5006 3722 
Q 5669 3103 6256 2434 
L 5881 2097 
Q 5344 2747 4663 3422 
z
M 3600 3741 
L 4013 3484 
Q 3456 2628 2925 1997 
Q 2706 2191 2544 2297 
Q 3106 2922 3600 3741 
z
" transform="scale(0.015625)"/>
       <path id="MicrosoftYaHei-4e0b" d="M 163 4803 
L 6238 4803 
L 6238 4291 
L 3200 4291 
L 3200 2928 
L 3488 3328 
Q 4919 2484 5888 1809 
L 5519 1303 
Q 4550 2047 3200 2872 
L 3200 -797 
L 2631 -797 
L 2631 4291 
L 163 4291 
L 163 4803 
z
" transform="scale(0.015625)"/>
       <path id="MicrosoftYaHei-964d" d="M 2263 3616 
Q 3000 4322 3494 5309 
L 3919 5122 
Q 3803 4919 3688 4728 
L 5788 4728 
L 5788 4303 
Q 5403 3681 4713 3213 
Q 5269 2972 6325 2803 
Q 6294 2728 6125 2353 
Q 4900 2594 4247 2934 
Q 3481 2525 2419 2259 
Q 2319 2491 2194 2672 
Q 3122 2863 3828 3206 
Q 3438 3519 3156 3953 
Q 2878 3591 2588 3297 
Q 2444 3466 2263 3616 
z
M 2181 1678 
Q 2344 509 1588 334 
Q 1388 291 1044 328 
Q 975 597 906 834 
Q 1213 753 1419 784 
Q 1844 859 1706 1678 
Q 1594 2303 1206 2803 
Q 1481 3703 1688 4472 
L 869 4472 
L 869 -841 
L 400 -841 
L 400 4909 
L 2200 4909 
L 2200 4472 
Q 1806 3222 1700 2884 
Q 2094 2316 2181 1678 
z
M 2925 584 
L 4125 584 
L 4125 1591 
L 2500 1591 
L 2500 2016 
L 4125 2016 
L 4125 2597 
L 4594 2597 
L 4594 2016 
L 6088 2016 
L 6088 1591 
L 4594 1591 
L 4594 584 
L 6138 584 
L 6138 159 
L 4594 159 
L 4594 -847 
L 4125 -847 
L 4125 159 
L 2456 159 
L 2456 616 
L 2700 1422 
L 3169 1422 
L 2925 584 
z
M 5244 4303 
L 3422 4303 
Q 3806 3753 4269 3450 
Q 4850 3813 5244 4303 
z
" transform="scale(0.015625)"/>
       <path id="MicrosoftYaHei-6bd4" d="M 3225 5316 
L 3744 5316 
L 3744 2672 
Q 4959 3550 5744 4509 
L 6188 4178 
Q 5175 3063 3744 2056 
L 3744 247 
Q 3744 -166 4106 -166 
L 5175 -166 
Q 5588 -166 5650 203 
Q 5725 678 5763 1247 
Q 6025 1147 6300 1066 
Q 6244 484 6150 22 
Q 6019 -622 5319 -622 
L 3944 -622 
Q 3225 -622 3225 159 
L 3225 5316 
z
M 1063 5153 
L 1063 3278 
L 2825 3278 
L 2825 2809 
L 1063 2809 
L 1063 153 
Q 1713 428 2763 928 
Q 2763 634 2788 366 
Q 1869 -3 1231 -328 
Q 956 -472 725 -672 
L 344 -184 
Q 544 -34 544 272 
L 544 5153 
L 1063 5153 
z
" transform="scale(0.015625)"/>
       <path id="MicrosoftYaHei-4f8b" d="M 2381 1841 
L 2631 2191 
Q 2916 1997 3247 1738 
Q 3488 2378 3581 3128 
L 2703 3128 
Q 2350 1984 1831 1291 
Q 1700 1491 1531 1678 
Q 2238 2694 2578 4522 
L 1900 4522 
L 1900 4959 
L 4319 4959 
L 4319 4522 
L 3044 4522 
Q 2947 4009 2828 3559 
L 4044 3559 
L 4044 3128 
Q 3788 666 2038 -822 
Q 1900 -634 1694 -416 
Q 2578 297 3063 1303 
Q 2753 1556 2381 1841 
z
M 88 2291 
Q 894 3659 1281 5322 
L 1744 5234 
Q 1578 4534 1325 3853 
L 1325 -809 
L 900 -809 
L 900 2847 
Q 625 2275 288 1716 
Q 213 1966 88 2291 
z
M 5575 5303 
L 6031 5303 
L 6031 84 
Q 6031 -391 5881 -566 
Q 5750 -728 5356 -734 
Q 5088 -741 4488 -722 
Q 4463 -466 4400 -203 
Q 4881 -253 5188 -253 
Q 5431 -259 5500 -166 
Q 5575 -84 5575 234 
L 5575 5303 
z
M 4913 653 
L 4469 653 
L 4469 4322 
L 4913 4322 
L 4913 653 
z
" transform="scale(0.015625)"/>
       <path id="MicrosoftYaHei-25" d="M 272 3619 
Q 272 4213 589 4563 
Q 906 4913 1444 4913 
Q 1959 4913 2248 4591 
Q 2538 4269 2538 3694 
Q 2538 3122 2219 2765 
Q 1900 2409 1372 2409 
Q 872 2409 572 2740 
Q 272 3072 272 3619 
z
M 753 3650 
Q 753 3247 928 3028 
Q 1103 2809 1406 2809 
Q 1719 2809 1889 3036 
Q 2059 3263 2059 3675 
Q 2059 4078 1892 4298 
Q 1725 4519 1422 4519 
Q 1113 4519 933 4289 
Q 753 4059 753 3650 
z
M 4647 4841 
L 1538 -31 
L 1016 -31 
L 4125 4841 
L 4647 4841 
z
M 3172 1134 
Q 3172 1728 3489 2083 
Q 3806 2438 4341 2438 
Q 4853 2438 5143 2114 
Q 5434 1791 5434 1203 
Q 5434 634 5112 279 
Q 4791 -75 4272 -75 
Q 3769 -75 3470 261 
Q 3172 597 3172 1134 
z
M 3650 1163 
Q 3650 769 3825 548 
Q 4000 328 4303 328 
Q 4616 328 4786 556 
Q 4956 784 4956 1194 
Q 4956 1600 4786 1815 
Q 4616 2031 4319 2031 
Q 4000 2031 3825 1801 
Q 3650 1572 3650 1163 
z
" transform="scale(0.015625)"/>
      </defs>
      <use xlink:href="#MicrosoftYaHei-32"/>
      <use xlink:href="#MicrosoftYaHei-30" transform="translate(58.642578 0)"/>
      <use xlink:href="#MicrosoftYaHei-34" transform="translate(117.285156 0)"/>
      <use xlink:href="#MicrosoftYaHei-35" transform="translate(175.927734 0)"/>
      <use xlink:href="#MicrosoftYaHei-8f83" transform="translate(234.570312 0)"/>
      <use xlink:href="#MicrosoftYaHei-5cf0" transform="translate(334.570312 0)"/>
      <use xlink:href="#MicrosoftYaHei-503c" transform="translate(434.570312 0)"/>
      <use xlink:href="#MicrosoftYaHei-4e0b" transform="translate(534.570312 0)"/>
      <use xlink:href="#MicrosoftYaHei-964d" transform="translate(634.570312 0)"/>
      <use xlink:href="#MicrosoftYaHei-6bd4" transform="translate(734.570312 0)"/>
      <use xlink:href="#MicrosoftYaHei-4f8b" transform="translate(834.570312 0)"/>
      <use xlink:href="#MicrosoftYaHei-ff08" transform="translate(934.570312 0)"/>
      <use xlink:href="#MicrosoftYaHei-25" transform="translate(1034.570312 0)"/>
      <use xlink:href="#MicrosoftYaHei-ff09" transform="translate(1123.535156 0)"/>
     </g>
    </g>
   </g>
   <g id="line2d_28">
    <path d="M 151.261735 172.754325 
L 310.027969 340.637045 
L 468.794203 37.927955 
" clip-path="url(#p3986475786)" style="fill: none; stroke: #c2410c; stroke-width: 2.2; stroke-linecap: round"/>
    <defs>
     <path id="m30308917c9" d="M 0 3 
C 0.795609 3 1.55874 2.683901 2.12132 2.12132 
C 2.683901 1.55874 3 0.795609 3 0 
C 3 -0.795609 2.683901 -1.55874 2.12132 -2.12132 
C 1.55874 -2.683901 0.795609 -3 0 -3 
C -0.795609 -3 -1.55874 -2.683901 -2.12132 -2.12132 
C -2.683901 -1.55874 -3 -0.795609 -3 0 
C -3 0.795609 -2.683901 1.55874 -2.12132 2.12132 
C -1.55874 2.683901 -0.795609 3 0 3 
z
" style="stroke: #c2410c"/>
    </defs>
    <g clip-path="url(#p3986475786)">
     <use xlink:href="#m30308917c9" x="151.261735" y="172.754325" style="fill: #c2410c; stroke: #c2410c"/>
     <use xlink:href="#m30308917c9" x="310.027969" y="340.637045" style="fill: #c2410c; stroke: #c2410c"/>
     <use xlink:href="#m30308917c9" x="468.794203" y="37.927955" style="fill: #c2410c; stroke: #c2410c"/>
    </g>
   </g>
   <g id="patch_10">
    <path d="M 65.527969 355.7725 
L 65.527969 22.7925 
" style="fill: none; stroke: #cccccc; stroke-width: 1.25; stroke-linejoin: miter; stroke-linecap: square"/>
   </g>
   <g id="patch_11">
    <path d="M 554.527969 355.7725 
L 554.527969 22.7925 
" style="fill: none; stroke: #cccccc; stroke-width: 1.25; stroke-linejoin: miter; stroke-linecap: square"/>
   </g>
   <g id="patch_12">
    <path d="M 65.527969 355.7725 
L 554.527969 355.7725 
" style="fill: none; stroke: #cccccc; stroke-width: 1.25; stroke-linejoin: miter; stroke-linecap: square"/>
   </g>
   <g id="patch_13">
    <path d="M 65.527969 22.7925 
L 554.527969 22.7925 
" style="fill: none; stroke: #cccccc; stroke-width: 1.25; stroke-linejoin: miter; stroke-linecap: square"/>
   </g>
   <g id="text_22">
    <!-- 41.7% -->
    <g style="fill: #c2410c" transform="translate(133.92361 169.7712) scale(0.12 -0.12)">
     <defs>
      <path id="MicrosoftYaHei-2e" d="M 372 322 
Q 372 491 487 606 
Q 603 722 775 722 
Q 950 722 1065 605 
Q 1181 488 1181 322 
Q 1181 159 1065 42 
Q 950 -75 772 -75 
Q 600 -75 486 42 
Q 372 159 372 322 
z
" transform="scale(0.015625)"/>
      <path id="MicrosoftYaHei-37" d="M 3422 4463 
Q 2659 3131 2223 1998 
Q 1788 866 1684 0 
L 1047 0 
Q 1163 853 1594 1947 
Q 2025 3041 2747 4300 
L 347 4300 
L 347 4841 
L 3422 4841 
L 3422 4463 
z
" transform="scale(0.015625)"/>
     </defs>
     <use xlink:href="#MicrosoftYaHei-34"/>
     <use xlink:href="#MicrosoftYaHei-31" transform="translate(58.642578 0)"/>
     <use xlink:href="#MicrosoftYaHei-2e" transform="translate(117.285156 0)"/>
     <use xlink:href="#MicrosoftYaHei-37" transform="translate(141.357422 0)"/>
     <use xlink:href="#MicrosoftYaHei-25" transform="translate(200 0)"/>
    </g>
   </g>
   <g id="text_23">
    <!-- 16.4% -->
    <g style="fill: #c2410c" transform="translate(292.689844 337.65392) scale(0.12 -0.12)">
     <use xlink:href="#MicrosoftYaHei-31"/>
     <use xlink:href="#MicrosoftYaHei-36" transform="translate(58.642578 0)"/>
     <use xlink:href="#MicrosoftYaHei-2e" transform="translate(117.285156 0)"/>
     <use xlink:href="#MicrosoftYaHei-34" transform="translate(141.357422 0)"/>
     <use xlink:href="#MicrosoftYaHei-25" transform="translate(200 0)"/>
    </g>
   </g>
   <g id="text_24">
    <!-- 62.0% -->
    <g style="fill: #c2410c" transform="translate(451.456078 34.94483) scale(0.12 -0.12)">
     <use xlink:href="#MicrosoftYaHei-36"/>
     <use xlink:href="#MicrosoftYaHei-32" transform="translate(58.642578 0)"/>
     <use xlink:href="#MicrosoftYaHei-2e" transform="translate(117.285156 0)"/>
     <use xlink:href="#MicrosoftYaHei-30" transform="translate(141.357422 0)"/>
     <use xlink:href="#MicrosoftYaHei-25" transform="translate(200 0)"/>
    </g>
   </g>
  </g>
 </g>
 <defs>
  <clipPath id="p3986475786">
   <rect x="65.527969" y="22.7925" width="489" height="332.98"/>
  </clipPath>
 </defs>
</svg>
